<svg xmlns="http://www.w3.org/2000/svg" viewBox="0 0 64 64">
  <rect width="64" height="64" rx="14" fill="#0f7c55"/>
  <path d="M15 35.5c0-7.2 5.8-13 13-13h8c7.2 0 13 5.8 13 13v4.2c0 1.2-1 2.3-2.3 2.3H43a6 6 0 0 1-11.3 0h-7.4A6 6 0 0 1 13 42h-1.7A2.3 2.3 0 0 1 9 39.7v-2.5c0-.9.5-1.7 1.3-2.1l4.7-2.4Z" fill="#fff"/>
  <path d="M20.8 30.5h22.4c-1.7-3.1-5-5.2-8.8-5.2h-4.8c-3.8 0-7.1 2.1-8.8 5.2Z" fill="#dff5ec"/>
  <circle cx="18.6" cy="42" r="3.2" fill="#e2a72e"/>
  <circle cx="37.4" cy="42" r="3.2" fill="#e2a72e"/>
  <path d="M18 17h28" stroke="#e2a72e" stroke-width="4" stroke-linecap="round"/>
</svg>
